<svg width="600" height="400" viewBox="0 0 600 400" fill="none" xmlns="http://www.w3.org/2000/svg">
  <rect width="600" height="400" fill="#E8F4FD"/>
  <g opacity="0.5">
    <path d="M0 267.5C0 267.5 77 217.5 200 267.5C323 317.5 400 267.5 600 317.5V400H0V267.5Z" fill="#B8DBFC"/>
  </g>
  <g opacity="0.3">
    <path d="M0 317.5C0 317.5 100 267.5 250 317.5C400 367.5 500 317.5 600 367.5V400H0V317.5Z" fill="#7EC3F5"/>
  </g>
  
  <!-- 足跡のイラスト -->
  <g transform="translate(250, 150)">
    <!-- 左足 -->
    <ellipse cx="50" cy="50" rx="30" ry="45" fill="#4A90E2" opacity="0.8"/>
    <circle cx="35" cy="20" r="8" fill="#4A90E2" opacity="0.8"/>
    <circle cx="50" cy="15" r="8" fill="#4A90E2" opacity="0.8"/>
    <circle cx="65" cy="20" r="8" fill="#4A90E2" opacity="0.8"/>
    <circle cx="60" cy="32" r="6" fill="#4A90E2" opacity="0.8"/>
    
    <!-- 右足 -->
    <ellipse cx="120" cy="80" rx="30" ry="45" fill="#7ED321" opacity="0.8"/>
    <circle cx="105" cy="50" r="8" fill="#7ED321" opacity="0.8"/>
    <circle cx="120" cy="45" r="8" fill="#7ED321" opacity="0.8"/>
    <circle cx="135" cy="50" r="8" fill="#7ED321" opacity="0.8"/>
    <circle cx="130" cy="62" r="6" fill="#7ED321" opacity="0.8"/>
  </g>
  
  <!-- 装飾的な要素 -->
  <circle cx="100" cy="100" r="20" fill="#F5A623" opacity="0.3"/>
  <circle cx="500" cy="150" r="15" fill="#7ED321" opacity="0.3"/>
  <circle cx="450" cy="250" r="25" fill="#4A90E2" opacity="0.2"/>
</svg>